<?xml version="1.0" encoding="utf-8"?>
<!-- Generator: Adobe Illustrator 24.0.1, SVG Export Plug-In . SVG Version: 6.00 Build 0)  -->
<svg version="1.1" id="Capa_1" xmlns="http://www.w3.org/2000/svg" xmlns:xlink="http://www.w3.org/1999/xlink" x="0px" y="0px"
	 viewBox="0 0 800 800" style="enable-background:new 0 0 800 800;" xml:space="preserve">
<style type="text/css">
	.st0{fill:#FFFFFF;}
	.st1{fill:none;stroke:#000000;stroke-width:2;stroke-miterlimit:16.6667;}
</style>
<circle class="st0" cx="23.5" cy="23.5" r="23.5"/>
<path class="st1" d="M19,17.1l13.3-2.3 M19,17.1v15.1 M19,17.1v-3.2c0-0.6,0.5-1.2,1.1-1.3l10.7-1.9c0.8-0.1,1.6,0.5,1.6,1.3v2.7
	 M32.3,14.7v14.8 M15.9,29.6l-1.4,0.2c-1.3,0.2-2.2,1.3-2.2,2.6c0,1.6,1.5,2.9,3.1,2.6l1.4-0.2c1.3-0.2,2.2-1.3,2.2-2.6
	C19,30.5,17.5,29.3,15.9,29.6z M29.2,26.9l-1.4,0.2c-1.3,0.2-2.2,1.3-2.2,2.6c0,1.6,1.5,2.9,3.1,2.6l1.4-0.2
	c1.3-0.2,2.2-1.3,2.2-2.6C32.3,27.9,30.8,26.6,29.2,26.9L29.2,26.9z"/>
</svg>
