<?xml version="1.0" encoding="utf-8"?>
<!-- Generator: Adobe Illustrator 24.0.1, SVG Export Plug-In . SVG Version: 6.00 Build 0)  -->
<svg version="1.1" id="Layer_1" xmlns="http://www.w3.org/2000/svg" xmlns:xlink="http://www.w3.org/1999/xlink" x="0px" y="0px"
	 viewBox="0 0 800 800" style="enable-background:new 0 0 800 800;" xml:space="preserve">
<style type="text/css">
	.st0{fill:#FFFFFF;}
</style>
<g>
	<g>
		<g>
			<path class="st0" d="M32.5,0C14.6,0,0,14.6,0,32.5S14.6,65,32.5,65S65,50.4,65,32.5S50.4,0,32.5,0z M32.5,62.3
				c-16.4,0-29.8-13.4-29.8-29.8S16.1,2.7,32.5,2.7s29.8,13.4,29.8,29.8S48.9,62.3,32.5,62.3z"/>
			<path class="st0" d="M46.4,35.6L33.9,48.2V13.6c0-0.7-0.5-1.3-1.2-1.4c-0.8-0.1-1.6,0.5-1.6,1.3v34.7L18.6,35.6
				c-0.5-0.5-1.4-0.5-1.9,0c-0.5,0.5-0.5,1.4,0,1.9l14.9,14.9c0.5,0.5,1.4,0.5,1.9,0l14.9-14.9c0.5-0.5,0.5-1.4,0-1.9
				C47.8,35.1,47,35.1,46.4,35.6z"/>
		</g>
	</g>
</g>
</svg>
