<?xml version="1.0" encoding="utf-8"?>
<!-- Generator: Adobe Illustrator 24.0.1, SVG Export Plug-In . SVG Version: 6.00 Build 0)  -->
<svg version="1.1" id="Capa_1" xmlns="http://www.w3.org/2000/svg" xmlns:xlink="http://www.w3.org/1999/xlink" x="0px" y="0px"
	 viewBox="0 0 800 800" style="enable-background:new 0 0 800 800;" xml:space="preserve">
<style type="text/css">
	.st0{fill:#FFFFFF;}
	.st1{fill:none;stroke:#000000;stroke-width:2;stroke-linecap:round;stroke-linejoin:round;stroke-miterlimit:133.3333;}
</style>
<circle class="st0" cx="24.3" cy="23.5" r="23.5"/>
<path class="st1" d="M30.2,17.5L30.2,17.5 M19.3,33.5h10c2.8,0,5-2.2,5-5v-10c0-2.8-2.2-5-5-5h-10c-2.8,0-5,2.2-5,5v10
	C14.3,31.3,16.6,33.5,19.3,33.5z M29,23.5c0,2.6-2.1,4.7-4.7,4.7c-2.6,0-4.7-2.1-4.7-4.7c0-2.6,2.1-4.7,4.7-4.7
	C26.9,18.8,29,20.9,29,23.5z"/>
</svg>
