<?xml version="1.0" encoding="utf-8"?>
<!-- Generator: Adobe Illustrator 24.0.1, SVG Export Plug-In . SVG Version: 6.00 Build 0)  -->
<svg version="1.1" id="Capa_1" xmlns="http://www.w3.org/2000/svg" xmlns:xlink="http://www.w3.org/1999/xlink" x="0px" y="0px"
	 viewBox="0 0 800 800" style="enable-background:new 0 0 800 800;" xml:space="preserve">
<style type="text/css">
	.st0{fill:#FFFFFF;}
	.st1{fill-rule:evenodd;clip-rule:evenodd;fill:#0F0F0F;}
</style>
<circle class="st0" cx="25.6" cy="23.8" r="23.5"/>
<path class="st1" d="M32.6,37.6c-2.7-0.7-8.2-2.6-13.3-7.6c-5-5-6.9-10.6-7.6-13.3c-0.4-1.6,0.3-3.1,1.5-3.9l3.1-2.2
	c1.8-1.3,4.4-0.9,5.6,1l2,2.8c0.8,1.2,0.5,2.9-0.6,3.7l-1.6,1.1c0.2,0.9,1,2.8,3.3,5.1c2.3,2.3,4.2,3,5.1,3.3l1.1-1.6
	c0.9-1.2,2.5-1.5,3.7-0.6l2.8,2c1.8,1.3,2.3,3.8,1,5.6l-2.2,3.1C35.7,37.3,34.2,38,32.6,37.6z M21.3,28.1c4.6,4.6,9.6,6.3,12,6.9
	c0.4,0.1,0.8,0,1.1-0.5l2.2-3.1c0.4-0.6,0.3-1.5-0.3-1.9l-2.8-2l-1.2,1.7c-0.5,0.7-1.4,1.2-2.5,1c-1.3-0.3-3.8-1.2-6.6-4.1
	s-3.8-5.3-4.1-6.6c-0.2-1.1,0.3-2,1-2.5l1.7-1.2l-2-2.8c-0.4-0.6-1.3-0.8-1.9-0.3L14.8,15c-0.4,0.3-0.5,0.7-0.5,1.1
	C15,18.5,16.7,23.5,21.3,28.1z"/>
</svg>
