<?xml version="1.0" encoding="utf-8"?>
<!-- Generator: Adobe Illustrator 24.0.1, SVG Export Plug-In . SVG Version: 6.00 Build 0)  -->
<svg version="1.1" id="Capa_1" xmlns="http://www.w3.org/2000/svg" xmlns:xlink="http://www.w3.org/1999/xlink" x="0px" y="0px"
	 viewBox="0 0 800 800" style="enable-background:new 0 0 800 800;" xml:space="preserve">
<style type="text/css">
	.st0{fill-rule:evenodd;clip-rule:evenodd;fill:#FFFFFF;}
</style>
<title>spotify [#162]</title>
<desc>Created with Sketch.</desc>
<g id="Page-1">
	<g id="Dribbble-Light-Preview" transform="translate(-140.000000, -7479.000000)">
		<g id="icons" transform="translate(56.000000, 160.000000)">
			<path id="spotify-_x5B__x23_162_x5D_" class="st0" d="M121.4,7339.8c-7.6-4.5-20.1-4.9-27.3-2.7c-1.2,0.4-2.4-0.3-2.7-1.5
				c-0.4-1.2,0.3-2.4,1.5-2.7c8.3-2.5,22.1-2,30.8,3.1c1,0.6,1.4,2,0.8,3C123.8,7340.1,122.4,7340.5,121.4,7339.8L121.4,7339.8z
				 M121.2,7346.5c-0.5,0.9-1.7,1.1-2.5,0.6c-6.3-3.9-15.9-5-23.4-2.7c-1,0.3-2-0.3-2.3-1.2c-0.3-1,0.3-2,1.2-2.3
				c8.5-2.6,19.1-1.3,26.4,3.1C121.4,7344.5,121.7,7345.6,121.2,7346.5L121.2,7346.5z M118.3,7352.9c-0.4,0.7-1.3,0.9-2,0.5
				c-5.5-3.4-12.5-4.1-20.6-2.3c-0.8,0.2-1.6-0.3-1.8-1.1c-0.2-0.8,0.3-1.6,1.1-1.8c9-2,16.6-1.2,22.8,2.6
				C118.5,7351.3,118.7,7352.2,118.3,7352.9L118.3,7352.9z M107.5,7319c-13,0-23.5,10.5-23.5,23.5s10.5,23.5,23.5,23.5
				s23.5-10.5,23.5-23.5C131,7329.5,120.5,7319,107.5,7319L107.5,7319z"/>
		</g>
	</g>
</g>
</svg>
