<?xml version="1.0" encoding="utf-8"?>
<!-- Generator: Adobe Illustrator 24.0.1, SVG Export Plug-In . SVG Version: 6.00 Build 0)  -->
<svg version="1.1" id="Capa_1" xmlns="http://www.w3.org/2000/svg" xmlns:xlink="http://www.w3.org/1999/xlink" x="0px" y="0px"
	 viewBox="0 0 800 800" style="enable-background:new 0 0 800 800;" xml:space="preserve">
<style type="text/css">
	.st0{fill-rule:evenodd;clip-rule:evenodd;fill:#FFFFFF;}
	.st1{fill-rule:evenodd;clip-rule:evenodd;}
</style>
<title>youtube [#168]</title>
<desc>Created with Sketch.</desc>
<g>
	<circle class="st0" cx="23.5" cy="23.5" r="23.5"/>
	<g id="Page-1">
		<g id="Dribbble-Light-Preview" transform="translate(-300.000000, -7442.000000)">
			<g id="icons" transform="translate(56.000000, 160.000000)">
				<path id="youtube-_x5B__x23_168_x5D_" class="st1" d="M265.7,7308.7v-6.9c2.5,1.2,4.4,2.3,6.6,3.5
					C270.4,7306.3,268.1,7307.4,265.7,7308.7 M279.4,7298.3c-0.4-0.6-1.1-1-1.9-1.1c-2.3-0.4-16.4-0.4-18.6,0
					c-0.6,0.1-1.2,0.4-1.6,0.8c-2,1.8-1.4,11.7-0.9,13.3c0.2,0.7,0.5,1.2,0.8,1.5c0.4,0.4,1,0.7,1.7,0.9c1.9,0.4,11.4,0.6,18.6,0.1
					c0.7-0.1,1.2-0.4,1.7-0.9C280.9,7311.1,280.8,7300.6,279.4,7298.3"/>
			</g>
		</g>
	</g>
</g>
</svg>
